<?xml version="1.0" standalone="no"?>
<!DOCTYPE svg PUBLIC "-//W3C//DTD SVG 20010904//EN"
 "http://www.w3.org/TR/2001/REC-SVG-20010904/DTD/svg10.dtd">
<svg version="1.0" xmlns="http://www.w3.org/2000/svg"
 width="1001.000000pt" height="1001.000000pt" viewBox="0 0 1001.000000 1001.000000"
 preserveAspectRatio="xMidYMid meet">
<metadata>
Created by potrace 1.14, written by Peter Selinger 2001-2017
</metadata>
<g transform="translate(0.000000,1001.000000) scale(0.100000,-0.100000)"
fill="#000000" stroke="none">
<path d="M6605 9992 c-74 -15 -181 -62 -315 -139 -85 -49 -162 -92 -170 -96
-8 -4 -24 -13 -35 -20 -11 -7 -63 -37 -115 -67 -52 -30 -104 -60 -115 -67 -11
-7 -29 -17 -40 -22 -11 -6 -42 -24 -70 -40 -27 -17 -70 -41 -95 -55 -25 -13
-107 -61 -184 -105 -76 -45 -141 -81 -143 -81 -3 0 -17 -8 -31 -18 -27 -19
-147 -86 -189 -106 -13 -6 -23 -14 -23 -18 0 -5 -4 -8 -9 -8 -5 0 -42 -19 -83
-43 -40 -24 -98 -57 -128 -74 -30 -17 -82 -46 -115 -65 -112 -65 -260 -150
-305 -175 -25 -14 -70 -40 -100 -58 -30 -18 -75 -44 -100 -57 -25 -14 -85 -49
-135 -78 -49 -29 -108 -63 -130 -75 -22 -12 -177 -101 -345 -197 -168 -97
-321 -184 -340 -195 -41 -23 -466 -267 -855 -491 -148 -85 -286 -164 -305
-175 -126 -70 -171 -101 -207 -140 -117 -127 -144 -314 -68 -472 52 -109 98
-145 390 -313 143 -82 415 -238 605 -347 190 -109 363 -208 385 -220 22 -13
144 -83 270 -155 127 -73 250 -144 275 -158 25 -13 70 -39 100 -57 30 -18 226
-131 435 -250 209 -120 468 -268 575 -330 107 -62 222 -127 255 -146 34 -19
186 -106 339 -194 320 -184 352 -203 467 -268 46 -26 98 -56 114 -66 17 -10
57 -33 90 -51 33 -18 89 -50 124 -72 34 -21 64 -38 66 -38 2 0 36 -19 77 -43
40 -24 109 -63 153 -86 218 -118 392 -258 538 -431 87 -103 195 -283 264 -440
9 -18 12 805 12 3084 0 3293 2 3169 -44 3296 -40 111 -141 242 -242 312 -68
46 -161 86 -243 103 -67 14 -202 18 -255 7z"/>
<path d="M2957 5413 c-2 -5 -3 -1142 -2 -2528 1 -2711 -2 -2555 53 -2660 42
-81 162 -183 237 -202 6 -1 28 -7 50 -12 37 -9 150 -8 185 2 8 2 29 7 45 12
17 4 35 11 40 15 6 4 26 17 45 27 19 11 139 80 265 152 190 110 901 518 1018
585 349 200 832 476 932 533 72 41 137 78 145 83 8 5 53 31 100 58 395 226
448 263 553 386 279 328 337 785 148 1165 -109 221 -261 366 -546 522 -16 9
-136 77 -265 151 -363 209 -840 482 -890 510 -25 14 -175 101 -335 193 -159
92 -308 177 -330 189 -22 13 -227 130 -455 261 -228 131 -536 308 -685 392
-148 85 -274 159 -279 164 -12 11 -23 12 -29 2z"/>
</g>
</svg>
